<?xml version="1.0" standalone="no"?>
<svg xmlns="http://www.w3.org/2000/svg" version="1.1" width="630" height="630">
	<!-- Created with https://api.qrserver.com (QR Code API, see goQR.me/api for information) -->
	<title>QR Code</title>
	<desc>https://calendly.com/hamzazulquernain1/zapp-studios-consulting</desc>
	<rect style="fill:rgb(245, 239, 224);fill-opacity:1" x="0" y="0" width="630" height="630" />
	<g id="elements">
		<path style="fill:rgb(12, 12, 12)" d="M 18,18 l 18,0 0,18 -18,0 z M 36,18 l 18,0 0,18 -18,0 z M 54,18 l 18,0 0,18 -18,0 z M 72,18 l 18,0 0,18 -18,0 z M 90,18 l 18,0 0,18 -18,0 z M 108,18 l 18,0 0,18 -18,0 z M 126,18 l 18,0 0,18 -18,0 z M 180,18 l 18,0 0,18 -18,0 z M 252,18 l 18,0 0,18 -18,0 z M 270,18 l 18,0 0,18 -18,0 z M 306,18 l 18,0 0,18 -18,0 z M 342,18 l 18,0 0,18 -18,0 z M 360,18 l 18,0 0,18 -18,0 z M 378,18 l 18,0 0,18 -18,0 z M 396,18 l 18,0 0,18 -18,0 z M 432,18 l 18,0 0,18 -18,0 z M 486,18 l 18,0 0,18 -18,0 z M 504,18 l 18,0 0,18 -18,0 z M 522,18 l 18,0 0,18 -18,0 z M 540,18 l 18,0 0,18 -18,0 z M 558,18 l 18,0 0,18 -18,0 z M 576,18 l 18,0 0,18 -18,0 z M 594,18 l 18,0 0,18 -18,0 z M 18,36 l 18,0 0,18 -18,0 z M 126,36 l 18,0 0,18 -18,0 z M 180,36 l 18,0 0,18 -18,0 z M 198,36 l 18,0 0,18 -18,0 z M 216,36 l 18,0 0,18 -18,0 z M 252,36 l 18,0 0,18 -18,0 z M 270,36 l 18,0 0,18 -18,0 z M 288,36 l 18,0 0,18 -18,0 z M 324,36 l 18,0 0,18 -18,0 z M 342,36 l 18,0 0,18 -18,0 z M 378,36 l 18,0 0,18 -18,0 z M 450,36 l 18,0 0,18 -18,0 z M 486,36 l 18,0 0,18 -18,0 z M 594,36 l 18,0 0,18 -18,0 z M 18,54 l 18,0 0,18 -18,0 z M 54,54 l 18,0 0,18 -18,0 z M 72,54 l 18,0 0,18 -18,0 z M 90,54 l 18,0 0,18 -18,0 z M 126,54 l 18,0 0,18 -18,0 z M 162,54 l 18,0 0,18 -18,0 z M 198,54 l 18,0 0,18 -18,0 z M 234,54 l 18,0 0,18 -18,0 z M 288,54 l 18,0 0,18 -18,0 z M 306,54 l 18,0 0,18 -18,0 z M 360,54 l 18,0 0,18 -18,0 z M 378,54 l 18,0 0,18 -18,0 z M 396,54 l 18,0 0,18 -18,0 z M 414,54 l 18,0 0,18 -18,0 z M 432,54 l 18,0 0,18 -18,0 z M 486,54 l 18,0 0,18 -18,0 z M 522,54 l 18,0 0,18 -18,0 z M 540,54 l 18,0 0,18 -18,0 z M 558,54 l 18,0 0,18 -18,0 z M 594,54 l 18,0 0,18 -18,0 z M 18,72 l 18,0 0,18 -18,0 z M 54,72 l 18,0 0,18 -18,0 z M 72,72 l 18,0 0,18 -18,0 z M 90,72 l 18,0 0,18 -18,0 z M 126,72 l 18,0 0,18 -18,0 z M 162,72 l 18,0 0,18 -18,0 z M 198,72 l 18,0 0,18 -18,0 z M 216,72 l 18,0 0,18 -18,0 z M 252,72 l 18,0 0,18 -18,0 z M 270,72 l 18,0 0,18 -18,0 z M 324,72 l 18,0 0,18 -18,0 z M 360,72 l 18,0 0,18 -18,0 z M 414,72 l 18,0 0,18 -18,0 z M 432,72 l 18,0 0,18 -18,0 z M 486,72 l 18,0 0,18 -18,0 z M 522,72 l 18,0 0,18 -18,0 z M 540,72 l 18,0 0,18 -18,0 z M 558,72 l 18,0 0,18 -18,0 z M 594,72 l 18,0 0,18 -18,0 z M 18,90 l 18,0 0,18 -18,0 z M 54,90 l 18,0 0,18 -18,0 z M 72,90 l 18,0 0,18 -18,0 z M 90,90 l 18,0 0,18 -18,0 z M 126,90 l 18,0 0,18 -18,0 z M 162,90 l 18,0 0,18 -18,0 z M 180,90 l 18,0 0,18 -18,0 z M 216,90 l 18,0 0,18 -18,0 z M 234,90 l 18,0 0,18 -18,0 z M 306,90 l 18,0 0,18 -18,0 z M 324,90 l 18,0 0,18 -18,0 z M 342,90 l 18,0 0,18 -18,0 z M 360,90 l 18,0 0,18 -18,0 z M 378,90 l 18,0 0,18 -18,0 z M 396,90 l 18,0 0,18 -18,0 z M 414,90 l 18,0 0,18 -18,0 z M 432,90 l 18,0 0,18 -18,0 z M 486,90 l 18,0 0,18 -18,0 z M 522,90 l 18,0 0,18 -18,0 z M 540,90 l 18,0 0,18 -18,0 z M 558,90 l 18,0 0,18 -18,0 z M 594,90 l 18,0 0,18 -18,0 z M 18,108 l 18,0 0,18 -18,0 z M 126,108 l 18,0 0,18 -18,0 z M 162,108 l 18,0 0,18 -18,0 z M 180,108 l 18,0 0,18 -18,0 z M 198,108 l 18,0 0,18 -18,0 z M 216,108 l 18,0 0,18 -18,0 z M 288,108 l 18,0 0,18 -18,0 z M 306,108 l 18,0 0,18 -18,0 z M 342,108 l 18,0 0,18 -18,0 z M 378,108 l 18,0 0,18 -18,0 z M 396,108 l 18,0 0,18 -18,0 z M 414,108 l 18,0 0,18 -18,0 z M 486,108 l 18,0 0,18 -18,0 z M 594,108 l 18,0 0,18 -18,0 z M 18,126 l 18,0 0,18 -18,0 z M 36,126 l 18,0 0,18 -18,0 z M 54,126 l 18,0 0,18 -18,0 z M 72,126 l 18,0 0,18 -18,0 z M 90,126 l 18,0 0,18 -18,0 z M 108,126 l 18,0 0,18 -18,0 z M 126,126 l 18,0 0,18 -18,0 z M 162,126 l 18,0 0,18 -18,0 z M 198,126 l 18,0 0,18 -18,0 z M 234,126 l 18,0 0,18 -18,0 z M 270,126 l 18,0 0,18 -18,0 z M 306,126 l 18,0 0,18 -18,0 z M 342,126 l 18,0 0,18 -18,0 z M 378,126 l 18,0 0,18 -18,0 z M 414,126 l 18,0 0,18 -18,0 z M 450,126 l 18,0 0,18 -18,0 z M 486,126 l 18,0 0,18 -18,0 z M 504,126 l 18,0 0,18 -18,0 z M 522,126 l 18,0 0,18 -18,0 z M 540,126 l 18,0 0,18 -18,0 z M 558,126 l 18,0 0,18 -18,0 z M 576,126 l 18,0 0,18 -18,0 z M 594,126 l 18,0 0,18 -18,0 z M 162,144 l 18,0 0,18 -18,0 z M 180,144 l 18,0 0,18 -18,0 z M 216,144 l 18,0 0,18 -18,0 z M 234,144 l 18,0 0,18 -18,0 z M 270,144 l 18,0 0,18 -18,0 z M 288,144 l 18,0 0,18 -18,0 z M 342,144 l 18,0 0,18 -18,0 z M 378,144 l 18,0 0,18 -18,0 z M 396,144 l 18,0 0,18 -18,0 z M 18,162 l 18,0 0,18 -18,0 z M 54,162 l 18,0 0,18 -18,0 z M 72,162 l 18,0 0,18 -18,0 z M 90,162 l 18,0 0,18 -18,0 z M 108,162 l 18,0 0,18 -18,0 z M 126,162 l 18,0 0,18 -18,0 z M 180,162 l 18,0 0,18 -18,0 z M 234,162 l 18,0 0,18 -18,0 z M 252,162 l 18,0 0,18 -18,0 z M 270,162 l 18,0 0,18 -18,0 z M 324,162 l 18,0 0,18 -18,0 z M 360,162 l 18,0 0,18 -18,0 z M 414,162 l 18,0 0,18 -18,0 z M 432,162 l 18,0 0,18 -18,0 z M 450,162 l 18,0 0,18 -18,0 z M 486,162 l 18,0 0,18 -18,0 z M 504,162 l 18,0 0,18 -18,0 z M 522,162 l 18,0 0,18 -18,0 z M 540,162 l 18,0 0,18 -18,0 z M 558,162 l 18,0 0,18 -18,0 z M 36,180 l 18,0 0,18 -18,0 z M 54,180 l 18,0 0,18 -18,0 z M 72,180 l 18,0 0,18 -18,0 z M 90,180 l 18,0 0,18 -18,0 z M 108,180 l 18,0 0,18 -18,0 z M 198,180 l 18,0 0,18 -18,0 z M 216,180 l 18,0 0,18 -18,0 z M 234,180 l 18,0 0,18 -18,0 z M 270,180 l 18,0 0,18 -18,0 z M 306,180 l 18,0 0,18 -18,0 z M 324,180 l 18,0 0,18 -18,0 z M 342,180 l 18,0 0,18 -18,0 z M 360,180 l 18,0 0,18 -18,0 z M 396,180 l 18,0 0,18 -18,0 z M 432,180 l 18,0 0,18 -18,0 z M 486,180 l 18,0 0,18 -18,0 z M 504,180 l 18,0 0,18 -18,0 z M 540,180 l 18,0 0,18 -18,0 z M 558,180 l 18,0 0,18 -18,0 z M 594,180 l 18,0 0,18 -18,0 z M 18,198 l 18,0 0,18 -18,0 z M 54,198 l 18,0 0,18 -18,0 z M 90,198 l 18,0 0,18 -18,0 z M 126,198 l 18,0 0,18 -18,0 z M 162,198 l 18,0 0,18 -18,0 z M 198,198 l 18,0 0,18 -18,0 z M 216,198 l 18,0 0,18 -18,0 z M 234,198 l 18,0 0,18 -18,0 z M 252,198 l 18,0 0,18 -18,0 z M 270,198 l 18,0 0,18 -18,0 z M 288,198 l 18,0 0,18 -18,0 z M 306,198 l 18,0 0,18 -18,0 z M 324,198 l 18,0 0,18 -18,0 z M 378,198 l 18,0 0,18 -18,0 z M 396,198 l 18,0 0,18 -18,0 z M 414,198 l 18,0 0,18 -18,0 z M 468,198 l 18,0 0,18 -18,0 z M 486,198 l 18,0 0,18 -18,0 z M 522,198 l 18,0 0,18 -18,0 z M 558,198 l 18,0 0,18 -18,0 z M 576,198 l 18,0 0,18 -18,0 z M 36,216 l 18,0 0,18 -18,0 z M 90,216 l 18,0 0,18 -18,0 z M 108,216 l 18,0 0,18 -18,0 z M 144,216 l 18,0 0,18 -18,0 z M 198,216 l 18,0 0,18 -18,0 z M 270,216 l 18,0 0,18 -18,0 z M 288,216 l 18,0 0,18 -18,0 z M 306,216 l 18,0 0,18 -18,0 z M 378,216 l 18,0 0,18 -18,0 z M 396,216 l 18,0 0,18 -18,0 z M 468,216 l 18,0 0,18 -18,0 z M 486,216 l 18,0 0,18 -18,0 z M 522,216 l 18,0 0,18 -18,0 z M 540,216 l 18,0 0,18 -18,0 z M 558,216 l 18,0 0,18 -18,0 z M 594,216 l 18,0 0,18 -18,0 z M 54,234 l 18,0 0,18 -18,0 z M 108,234 l 18,0 0,18 -18,0 z M 126,234 l 18,0 0,18 -18,0 z M 198,234 l 18,0 0,18 -18,0 z M 234,234 l 18,0 0,18 -18,0 z M 288,234 l 18,0 0,18 -18,0 z M 324,234 l 18,0 0,18 -18,0 z M 360,234 l 18,0 0,18 -18,0 z M 414,234 l 18,0 0,18 -18,0 z M 450,234 l 18,0 0,18 -18,0 z M 468,234 l 18,0 0,18 -18,0 z M 504,234 l 18,0 0,18 -18,0 z M 522,234 l 18,0 0,18 -18,0 z M 540,234 l 18,0 0,18 -18,0 z M 90,252 l 18,0 0,18 -18,0 z M 108,252 l 18,0 0,18 -18,0 z M 144,252 l 18,0 0,18 -18,0 z M 162,252 l 18,0 0,18 -18,0 z M 198,252 l 18,0 0,18 -18,0 z M 252,252 l 18,0 0,18 -18,0 z M 306,252 l 18,0 0,18 -18,0 z M 342,252 l 18,0 0,18 -18,0 z M 360,252 l 18,0 0,18 -18,0 z M 414,252 l 18,0 0,18 -18,0 z M 432,252 l 18,0 0,18 -18,0 z M 450,252 l 18,0 0,18 -18,0 z M 468,252 l 18,0 0,18 -18,0 z M 486,252 l 18,0 0,18 -18,0 z M 504,252 l 18,0 0,18 -18,0 z M 540,252 l 18,0 0,18 -18,0 z M 576,252 l 18,0 0,18 -18,0 z M 594,252 l 18,0 0,18 -18,0 z M 18,270 l 18,0 0,18 -18,0 z M 54,270 l 18,0 0,18 -18,0 z M 90,270 l 18,0 0,18 -18,0 z M 126,270 l 18,0 0,18 -18,0 z M 162,270 l 18,0 0,18 -18,0 z M 180,270 l 18,0 0,18 -18,0 z M 234,270 l 18,0 0,18 -18,0 z M 252,270 l 18,0 0,18 -18,0 z M 288,270 l 18,0 0,18 -18,0 z M 342,270 l 18,0 0,18 -18,0 z M 378,270 l 18,0 0,18 -18,0 z M 396,270 l 18,0 0,18 -18,0 z M 414,270 l 18,0 0,18 -18,0 z M 450,270 l 18,0 0,18 -18,0 z M 468,270 l 18,0 0,18 -18,0 z M 486,270 l 18,0 0,18 -18,0 z M 576,270 l 18,0 0,18 -18,0 z M 18,288 l 18,0 0,18 -18,0 z M 90,288 l 18,0 0,18 -18,0 z M 108,288 l 18,0 0,18 -18,0 z M 144,288 l 18,0 0,18 -18,0 z M 180,288 l 18,0 0,18 -18,0 z M 216,288 l 18,0 0,18 -18,0 z M 234,288 l 18,0 0,18 -18,0 z M 252,288 l 18,0 0,18 -18,0 z M 288,288 l 18,0 0,18 -18,0 z M 306,288 l 18,0 0,18 -18,0 z M 360,288 l 18,0 0,18 -18,0 z M 396,288 l 18,0 0,18 -18,0 z M 450,288 l 18,0 0,18 -18,0 z M 468,288 l 18,0 0,18 -18,0 z M 486,288 l 18,0 0,18 -18,0 z M 504,288 l 18,0 0,18 -18,0 z M 540,288 l 18,0 0,18 -18,0 z M 558,288 l 18,0 0,18 -18,0 z M 126,306 l 18,0 0,18 -18,0 z M 162,306 l 18,0 0,18 -18,0 z M 180,306 l 18,0 0,18 -18,0 z M 198,306 l 18,0 0,18 -18,0 z M 216,306 l 18,0 0,18 -18,0 z M 288,306 l 18,0 0,18 -18,0 z M 306,306 l 18,0 0,18 -18,0 z M 324,306 l 18,0 0,18 -18,0 z M 414,306 l 18,0 0,18 -18,0 z M 450,306 l 18,0 0,18 -18,0 z M 468,306 l 18,0 0,18 -18,0 z M 504,306 l 18,0 0,18 -18,0 z M 522,306 l 18,0 0,18 -18,0 z M 594,306 l 18,0 0,18 -18,0 z M 54,324 l 18,0 0,18 -18,0 z M 108,324 l 18,0 0,18 -18,0 z M 144,324 l 18,0 0,18 -18,0 z M 162,324 l 18,0 0,18 -18,0 z M 180,324 l 18,0 0,18 -18,0 z M 234,324 l 18,0 0,18 -18,0 z M 270,324 l 18,0 0,18 -18,0 z M 306,324 l 18,0 0,18 -18,0 z M 324,324 l 18,0 0,18 -18,0 z M 342,324 l 18,0 0,18 -18,0 z M 360,324 l 18,0 0,18 -18,0 z M 378,324 l 18,0 0,18 -18,0 z M 396,324 l 18,0 0,18 -18,0 z M 414,324 l 18,0 0,18 -18,0 z M 432,324 l 18,0 0,18 -18,0 z M 486,324 l 18,0 0,18 -18,0 z M 504,324 l 18,0 0,18 -18,0 z M 540,324 l 18,0 0,18 -18,0 z M 558,324 l 18,0 0,18 -18,0 z M 576,324 l 18,0 0,18 -18,0 z M 594,324 l 18,0 0,18 -18,0 z M 18,342 l 18,0 0,18 -18,0 z M 54,342 l 18,0 0,18 -18,0 z M 72,342 l 18,0 0,18 -18,0 z M 108,342 l 18,0 0,18 -18,0 z M 126,342 l 18,0 0,18 -18,0 z M 180,342 l 18,0 0,18 -18,0 z M 198,342 l 18,0 0,18 -18,0 z M 234,342 l 18,0 0,18 -18,0 z M 270,342 l 18,0 0,18 -18,0 z M 288,342 l 18,0 0,18 -18,0 z M 324,342 l 18,0 0,18 -18,0 z M 378,342 l 18,0 0,18 -18,0 z M 396,342 l 18,0 0,18 -18,0 z M 414,342 l 18,0 0,18 -18,0 z M 450,342 l 18,0 0,18 -18,0 z M 486,342 l 18,0 0,18 -18,0 z M 504,342 l 18,0 0,18 -18,0 z M 522,342 l 18,0 0,18 -18,0 z M 558,342 l 18,0 0,18 -18,0 z M 576,342 l 18,0 0,18 -18,0 z M 36,360 l 18,0 0,18 -18,0 z M 90,360 l 18,0 0,18 -18,0 z M 108,360 l 18,0 0,18 -18,0 z M 180,360 l 18,0 0,18 -18,0 z M 198,360 l 18,0 0,18 -18,0 z M 234,360 l 18,0 0,18 -18,0 z M 270,360 l 18,0 0,18 -18,0 z M 342,360 l 18,0 0,18 -18,0 z M 360,360 l 18,0 0,18 -18,0 z M 378,360 l 18,0 0,18 -18,0 z M 396,360 l 18,0 0,18 -18,0 z M 414,360 l 18,0 0,18 -18,0 z M 486,360 l 18,0 0,18 -18,0 z M 504,360 l 18,0 0,18 -18,0 z M 522,360 l 18,0 0,18 -18,0 z M 540,360 l 18,0 0,18 -18,0 z M 558,360 l 18,0 0,18 -18,0 z M 576,360 l 18,0 0,18 -18,0 z M 18,378 l 18,0 0,18 -18,0 z M 36,378 l 18,0 0,18 -18,0 z M 54,378 l 18,0 0,18 -18,0 z M 72,378 l 18,0 0,18 -18,0 z M 108,378 l 18,0 0,18 -18,0 z M 126,378 l 18,0 0,18 -18,0 z M 144,378 l 18,0 0,18 -18,0 z M 162,378 l 18,0 0,18 -18,0 z M 198,378 l 18,0 0,18 -18,0 z M 216,378 l 18,0 0,18 -18,0 z M 252,378 l 18,0 0,18 -18,0 z M 270,378 l 18,0 0,18 -18,0 z M 306,378 l 18,0 0,18 -18,0 z M 324,378 l 18,0 0,18 -18,0 z M 360,378 l 18,0 0,18 -18,0 z M 378,378 l 18,0 0,18 -18,0 z M 414,378 l 18,0 0,18 -18,0 z M 432,378 l 18,0 0,18 -18,0 z M 468,378 l 18,0 0,18 -18,0 z M 522,378 l 18,0 0,18 -18,0 z M 540,378 l 18,0 0,18 -18,0 z M 576,378 l 18,0 0,18 -18,0 z M 18,396 l 18,0 0,18 -18,0 z M 36,396 l 18,0 0,18 -18,0 z M 54,396 l 18,0 0,18 -18,0 z M 108,396 l 18,0 0,18 -18,0 z M 162,396 l 18,0 0,18 -18,0 z M 216,396 l 18,0 0,18 -18,0 z M 306,396 l 18,0 0,18 -18,0 z M 324,396 l 18,0 0,18 -18,0 z M 360,396 l 18,0 0,18 -18,0 z M 378,396 l 18,0 0,18 -18,0 z M 432,396 l 18,0 0,18 -18,0 z M 486,396 l 18,0 0,18 -18,0 z M 504,396 l 18,0 0,18 -18,0 z M 558,396 l 18,0 0,18 -18,0 z M 594,396 l 18,0 0,18 -18,0 z M 18,414 l 18,0 0,18 -18,0 z M 72,414 l 18,0 0,18 -18,0 z M 126,414 l 18,0 0,18 -18,0 z M 144,414 l 18,0 0,18 -18,0 z M 162,414 l 18,0 0,18 -18,0 z M 270,414 l 18,0 0,18 -18,0 z M 288,414 l 18,0 0,18 -18,0 z M 378,414 l 18,0 0,18 -18,0 z M 396,414 l 18,0 0,18 -18,0 z M 450,414 l 18,0 0,18 -18,0 z M 504,414 l 18,0 0,18 -18,0 z M 522,414 l 18,0 0,18 -18,0 z M 540,414 l 18,0 0,18 -18,0 z M 558,414 l 18,0 0,18 -18,0 z M 576,414 l 18,0 0,18 -18,0 z M 18,432 l 18,0 0,18 -18,0 z M 54,432 l 18,0 0,18 -18,0 z M 162,432 l 18,0 0,18 -18,0 z M 180,432 l 18,0 0,18 -18,0 z M 198,432 l 18,0 0,18 -18,0 z M 216,432 l 18,0 0,18 -18,0 z M 234,432 l 18,0 0,18 -18,0 z M 252,432 l 18,0 0,18 -18,0 z M 270,432 l 18,0 0,18 -18,0 z M 288,432 l 18,0 0,18 -18,0 z M 306,432 l 18,0 0,18 -18,0 z M 360,432 l 18,0 0,18 -18,0 z M 378,432 l 18,0 0,18 -18,0 z M 396,432 l 18,0 0,18 -18,0 z M 414,432 l 18,0 0,18 -18,0 z M 450,432 l 18,0 0,18 -18,0 z M 468,432 l 18,0 0,18 -18,0 z M 486,432 l 18,0 0,18 -18,0 z M 522,432 l 18,0 0,18 -18,0 z M 540,432 l 18,0 0,18 -18,0 z M 558,432 l 18,0 0,18 -18,0 z M 594,432 l 18,0 0,18 -18,0 z M 18,450 l 18,0 0,18 -18,0 z M 72,450 l 18,0 0,18 -18,0 z M 90,450 l 18,0 0,18 -18,0 z M 108,450 l 18,0 0,18 -18,0 z M 126,450 l 18,0 0,18 -18,0 z M 162,450 l 18,0 0,18 -18,0 z M 198,450 l 18,0 0,18 -18,0 z M 270,450 l 18,0 0,18 -18,0 z M 306,450 l 18,0 0,18 -18,0 z M 324,450 l 18,0 0,18 -18,0 z M 360,450 l 18,0 0,18 -18,0 z M 450,450 l 18,0 0,18 -18,0 z M 468,450 l 18,0 0,18 -18,0 z M 486,450 l 18,0 0,18 -18,0 z M 504,450 l 18,0 0,18 -18,0 z M 522,450 l 18,0 0,18 -18,0 z M 576,450 l 18,0 0,18 -18,0 z M 594,450 l 18,0 0,18 -18,0 z M 162,468 l 18,0 0,18 -18,0 z M 216,468 l 18,0 0,18 -18,0 z M 234,468 l 18,0 0,18 -18,0 z M 306,468 l 18,0 0,18 -18,0 z M 360,468 l 18,0 0,18 -18,0 z M 378,468 l 18,0 0,18 -18,0 z M 396,468 l 18,0 0,18 -18,0 z M 450,468 l 18,0 0,18 -18,0 z M 522,468 l 18,0 0,18 -18,0 z M 558,468 l 18,0 0,18 -18,0 z M 594,468 l 18,0 0,18 -18,0 z M 18,486 l 18,0 0,18 -18,0 z M 36,486 l 18,0 0,18 -18,0 z M 54,486 l 18,0 0,18 -18,0 z M 72,486 l 18,0 0,18 -18,0 z M 90,486 l 18,0 0,18 -18,0 z M 108,486 l 18,0 0,18 -18,0 z M 126,486 l 18,0 0,18 -18,0 z M 198,486 l 18,0 0,18 -18,0 z M 216,486 l 18,0 0,18 -18,0 z M 234,486 l 18,0 0,18 -18,0 z M 252,486 l 18,0 0,18 -18,0 z M 270,486 l 18,0 0,18 -18,0 z M 288,486 l 18,0 0,18 -18,0 z M 306,486 l 18,0 0,18 -18,0 z M 324,486 l 18,0 0,18 -18,0 z M 342,486 l 18,0 0,18 -18,0 z M 378,486 l 18,0 0,18 -18,0 z M 396,486 l 18,0 0,18 -18,0 z M 414,486 l 18,0 0,18 -18,0 z M 432,486 l 18,0 0,18 -18,0 z M 450,486 l 18,0 0,18 -18,0 z M 486,486 l 18,0 0,18 -18,0 z M 522,486 l 18,0 0,18 -18,0 z M 558,486 l 18,0 0,18 -18,0 z M 576,486 l 18,0 0,18 -18,0 z M 18,504 l 18,0 0,18 -18,0 z M 126,504 l 18,0 0,18 -18,0 z M 162,504 l 18,0 0,18 -18,0 z M 180,504 l 18,0 0,18 -18,0 z M 288,504 l 18,0 0,18 -18,0 z M 360,504 l 18,0 0,18 -18,0 z M 396,504 l 18,0 0,18 -18,0 z M 432,504 l 18,0 0,18 -18,0 z M 450,504 l 18,0 0,18 -18,0 z M 522,504 l 18,0 0,18 -18,0 z M 540,504 l 18,0 0,18 -18,0 z M 558,504 l 18,0 0,18 -18,0 z M 576,504 l 18,0 0,18 -18,0 z M 18,522 l 18,0 0,18 -18,0 z M 54,522 l 18,0 0,18 -18,0 z M 72,522 l 18,0 0,18 -18,0 z M 90,522 l 18,0 0,18 -18,0 z M 126,522 l 18,0 0,18 -18,0 z M 162,522 l 18,0 0,18 -18,0 z M 216,522 l 18,0 0,18 -18,0 z M 234,522 l 18,0 0,18 -18,0 z M 288,522 l 18,0 0,18 -18,0 z M 324,522 l 18,0 0,18 -18,0 z M 414,522 l 18,0 0,18 -18,0 z M 450,522 l 18,0 0,18 -18,0 z M 468,522 l 18,0 0,18 -18,0 z M 486,522 l 18,0 0,18 -18,0 z M 504,522 l 18,0 0,18 -18,0 z M 522,522 l 18,0 0,18 -18,0 z M 540,522 l 18,0 0,18 -18,0 z M 576,522 l 18,0 0,18 -18,0 z M 18,540 l 18,0 0,18 -18,0 z M 54,540 l 18,0 0,18 -18,0 z M 72,540 l 18,0 0,18 -18,0 z M 90,540 l 18,0 0,18 -18,0 z M 126,540 l 18,0 0,18 -18,0 z M 162,540 l 18,0 0,18 -18,0 z M 180,540 l 18,0 0,18 -18,0 z M 198,540 l 18,0 0,18 -18,0 z M 216,540 l 18,0 0,18 -18,0 z M 234,540 l 18,0 0,18 -18,0 z M 252,540 l 18,0 0,18 -18,0 z M 270,540 l 18,0 0,18 -18,0 z M 306,540 l 18,0 0,18 -18,0 z M 324,540 l 18,0 0,18 -18,0 z M 360,540 l 18,0 0,18 -18,0 z M 378,540 l 18,0 0,18 -18,0 z M 432,540 l 18,0 0,18 -18,0 z M 450,540 l 18,0 0,18 -18,0 z M 468,540 l 18,0 0,18 -18,0 z M 522,540 l 18,0 0,18 -18,0 z M 576,540 l 18,0 0,18 -18,0 z M 594,540 l 18,0 0,18 -18,0 z M 18,558 l 18,0 0,18 -18,0 z M 54,558 l 18,0 0,18 -18,0 z M 72,558 l 18,0 0,18 -18,0 z M 90,558 l 18,0 0,18 -18,0 z M 126,558 l 18,0 0,18 -18,0 z M 162,558 l 18,0 0,18 -18,0 z M 216,558 l 18,0 0,18 -18,0 z M 288,558 l 18,0 0,18 -18,0 z M 306,558 l 18,0 0,18 -18,0 z M 324,558 l 18,0 0,18 -18,0 z M 342,558 l 18,0 0,18 -18,0 z M 378,558 l 18,0 0,18 -18,0 z M 414,558 l 18,0 0,18 -18,0 z M 450,558 l 18,0 0,18 -18,0 z M 486,558 l 18,0 0,18 -18,0 z M 504,558 l 18,0 0,18 -18,0 z M 540,558 l 18,0 0,18 -18,0 z M 558,558 l 18,0 0,18 -18,0 z M 18,576 l 18,0 0,18 -18,0 z M 126,576 l 18,0 0,18 -18,0 z M 216,576 l 18,0 0,18 -18,0 z M 234,576 l 18,0 0,18 -18,0 z M 252,576 l 18,0 0,18 -18,0 z M 288,576 l 18,0 0,18 -18,0 z M 306,576 l 18,0 0,18 -18,0 z M 342,576 l 18,0 0,18 -18,0 z M 396,576 l 18,0 0,18 -18,0 z M 432,576 l 18,0 0,18 -18,0 z M 522,576 l 18,0 0,18 -18,0 z M 540,576 l 18,0 0,18 -18,0 z M 558,576 l 18,0 0,18 -18,0 z M 18,594 l 18,0 0,18 -18,0 z M 36,594 l 18,0 0,18 -18,0 z M 54,594 l 18,0 0,18 -18,0 z M 72,594 l 18,0 0,18 -18,0 z M 90,594 l 18,0 0,18 -18,0 z M 108,594 l 18,0 0,18 -18,0 z M 126,594 l 18,0 0,18 -18,0 z M 162,594 l 18,0 0,18 -18,0 z M 180,594 l 18,0 0,18 -18,0 z M 198,594 l 18,0 0,18 -18,0 z M 234,594 l 18,0 0,18 -18,0 z M 288,594 l 18,0 0,18 -18,0 z M 324,594 l 18,0 0,18 -18,0 z M 360,594 l 18,0 0,18 -18,0 z M 414,594 l 18,0 0,18 -18,0 z M 432,594 l 18,0 0,18 -18,0 z M 450,594 l 18,0 0,18 -18,0 z M 468,594 l 18,0 0,18 -18,0 z M 504,594 l 18,0 0,18 -18,0 z M 576,594 l 18,0 0,18 -18,0 z " />
	</g>
</svg>
